<svg width="20" height="20" viewBox="0 0 20 20" fill="none" xmlns="http://www.w3.org/2000/svg">
<path d="M17.7132 6.36021C17.7335 6.33708 17.7527 6.31251 17.7695 6.28677V6.28677C17.8835 6.11269 17.8984 5.89071 17.8008 5.70689C17.3853 4.92384 16.9029 4.25908 16.307 3.66519C16.1064 3.46523 15.799 3.42775 15.5465 3.55621V3.55621C13.9767 4.51479 11.9884 3.55621 11.6744 1.63905V1.63905C11.6105 1.37892 11.4028 1.1769 11.1394 1.12801C10.7532 1.05632 10.352 1 9.89535 1C9.42514 1 9.0723 1.05973 8.705 1.13446C8.48405 1.17941 8.32558 1.37501 8.32558 1.60048V1.60048C8.32558 1.62615 8.32352 1.65212 8.31906 1.6774C7.98504 3.56895 6.01275 4.50838 4.45349 3.55621V3.55621C4.20104 3.42775 3.89335 3.46506 3.69564 3.6679C3.10422 4.27466 2.62452 4.98657 2.21103 5.71102C2.10797 5.89159 2.11764 6.1145 2.23156 6.28841V6.28841C2.2477 6.31306 2.26605 6.33656 2.28549 6.3587C3.50322 7.7456 2.97503 9.95184 1.31395 10.5858V10.5858C1.12972 10.6483 1.01163 10.8288 1.03234 11.0222C1.13342 11.9663 1.30906 12.8973 1.61429 13.7033C1.68182 13.8817 1.85582 13.9941 2.04651 13.9941V13.9941C3.81865 13.888 5.27928 15.5785 4.77347 17.3812C4.76955 17.3952 4.76423 17.4089 4.75783 17.4219V17.4219C4.70333 17.5329 4.73872 17.6672 4.84216 17.7349C5.7018 18.2973 6.64624 18.7625 7.67546 18.9752C7.75461 18.9915 7.83627 18.9654 7.89292 18.9078V18.9078C7.90227 18.8983 7.91091 18.8878 7.91866 18.877C8.96619 17.4074 11.1402 17.4079 12.187 18.8784C12.1941 18.8883 12.202 18.8979 12.2105 18.9066V18.9066C12.2672 18.9642 12.3507 18.9867 12.4284 18.9644C13.4889 18.6606 14.456 18.2584 15.2464 17.5878C15.2963 17.5455 15.2988 17.4697 15.2529 17.423V17.423C15.2395 17.4095 15.2297 17.3926 15.2246 17.3743C14.7234 15.5741 16.0795 13.8881 17.9535 13.9941V13.9941C18.1429 13.9941 18.3136 13.8784 18.3798 13.7009C18.7032 12.8341 18.9447 11.9608 18.9917 11.0237C19.0016 10.8258 18.8737 10.6495 18.686 10.5858V10.5858C17.0256 9.84645 16.4972 7.74546 17.7132 6.36021Z" stroke="#676E89" stroke-miterlimit="10" stroke-linecap="round" stroke-linejoin="round"/>
<path d="M10.4769 13.7681C12.1295 13.6493 13.3607 11.9897 13.2269 10.0614C13.093 8.13303 11.6449 6.66609 9.99228 6.78489C8.33969 6.90369 7.10849 8.56324 7.24232 10.4916C7.37615 12.42 8.82433 13.8869 10.4769 13.7681Z" stroke="#676E89" stroke-miterlimit="10" stroke-linecap="round" stroke-linejoin="round"/>
</svg>
