<svg width="18" height="18" viewBox="0 0 18 18" fill="none" xmlns="http://www.w3.org/2000/svg">
<path d="M5.77193 8H1.22807C0.491228 8 0 7.4386 0 6.59649V1.40351C0 0.561403 0.491228 0 1.22807 0H5.77193C6.50877 0 7 0.561403 7 1.40351V6.59649C7 7.4386 6.50877 8 5.77193 8Z" fill="#110B56"/>
<path d="M14.4966 7C12.4986 7 11 5.375 11 3.5C11 1.5 12.6234 0 14.4966 0C16.4947 0 17.9932 1.625 17.9932 3.5C18.1181 5.375 16.4947 7 14.4966 7Z" fill="#110B56"/>
<path d="M5.77193 18H1.22807C0.491228 18 0 17.5 0 16.75V12.25C0 11.5 0.491228 11 1.22807 11H5.77193C6.50877 11 7 11.5 7 12.25V16.875C7 17.5 6.50877 18 5.77193 18Z" fill="#110B56"/>
<path d="M15.7719 18H11.2281C10.4912 18 10 17.5 10 16.75V12.25C10 11.5 10.4912 11 11.2281 11H15.7719C16.5088 11 17 11.5 17 12.25V16.875C17 17.5 16.386 18 15.7719 18Z" fill="#110B56"/>
</svg>
