<svg width="50" height="50" viewBox="0 0 50 50" fill="none" xmlns="http://www.w3.org/2000/svg">
<circle cx="25" cy="25" r="25" transform="rotate(-90 25 25)" fill="#54C1FB"/>
<path d="M24 20.0563C24 17.9155 22.1972 16 19.9437 16C17.6901 16 16 17.9155 16 20.0563C16 22.1972 17.8028 24 19.9437 24C22.1972 24 24 22.1972 24 20.0563Z" fill="white"/>
<path d="M33 21.8889L33 18.2222C33 17.1111 32.2 16 31.2 16L27.9 16C26.8 16 26 17 26 18.2222L26 21.8889C26 23 26.8 24 27.9 24L31.2 24C32.1 24 33 23 33 21.8889Z" fill="white"/>
<path d="M34 31.8592L34 28.1408C34 27.0141 33.1377 26 31.9521 26L18.0479 26C16.9701 26 16 26.9014 16 28.1408L16 31.8592C16 32.9859 16.8623 34 18.0479 34L31.9521 34C33.0299 34 34 32.9859 34 31.8592Z" fill="white"/>
</svg>
