<svg width="21" height="21" viewBox="0 0 21 21" fill="none" xmlns="http://www.w3.org/2000/svg">
<path d="M11.6654 13.2708L8.34373 13.9758C8.16241 14.0142 7.97437 14.0068 7.79668 13.9541C7.61898 13.9014 7.45725 13.8051 7.32617 13.6741C7.19509 13.543 7.0988 13.3813 7.04604 13.2036C6.99329 13.0259 6.98573 12.8378 7.02407 12.6564L7.72894 9.334C7.81862 8.9128 8.02822 8.52654 8.33247 8.22183L14.6971 1.85853C14.969 1.58636 15.2918 1.37045 15.6472 1.22313C16.0025 1.07582 16.3834 1 16.7681 1C17.1527 1 17.5336 1.07582 17.889 1.22313C18.2443 1.37045 18.5672 1.58636 18.8391 1.85853L19.1414 2.16093C19.4136 2.43289 19.6295 2.75584 19.7768 3.11132C19.9242 3.4668 20 3.84785 20 4.23266C20 4.61748 19.9242 4.99852 19.7768 5.354C19.6295 5.70949 19.4136 6.03244 19.1414 6.30439L12.7796 12.6677C12.4742 12.9722 12.0872 13.1817 11.6654 13.2708V13.2708Z" stroke="#676E89" stroke-linecap="round" stroke-linejoin="round"/>
<path d="M18 7.58413V17.0274C18 17.8158 17.6869 18.5719 17.1295 19.1293C16.5722 19.6868 15.8163 20 15.0281 20H3.97193C3.18372 20 2.4278 19.6868 1.87046 19.1293C1.31311 18.5719 1 17.8158 1 17.0274V5.97263C1 5.18424 1.31311 4.42814 1.87046 3.87066C2.4278 3.31319 3.18372 3 3.97193 3H13.3707" stroke="#676E89" stroke-linecap="round" stroke-linejoin="round"/>
</svg>
