<svg width="17" height="20" viewBox="0 0 17 20" fill="none" xmlns="http://www.w3.org/2000/svg">
<path d="M1 16H16" stroke="#0F3F62" stroke-linecap="round" stroke-linejoin="round"/>
<path d="M2 9.5C2 5.91015 4.91015 3 8.5 3V3C12.0899 3 15 5.91015 15 9.5V16H2V9.5Z" stroke="#0F3F62" stroke-linecap="round" stroke-linejoin="round"/>
<path d="M7.26756 16V15.5C7.08908 15.5 6.92413 15.5951 6.83476 15.7496L7.26756 16ZM10.7324 16L11.1652 15.7496C11.0759 15.5951 10.9109 15.5 10.7324 15.5V16ZM7.5 17C7.5 16.726 7.57303 16.4705 7.70037 16.2504L6.83476 15.7496C6.62175 16.1179 6.5 16.5455 6.5 17H7.5ZM9 18.5C8.17157 18.5 7.5 17.8284 7.5 17H6.5C6.5 18.3807 7.61929 19.5 9 19.5V18.5ZM10.5 17C10.5 17.8284 9.82843 18.5 9 18.5V19.5C10.3807 19.5 11.5 18.3807 11.5 17H10.5ZM10.2996 16.2504C10.427 16.4705 10.5 16.726 10.5 17H11.5C11.5 16.5455 11.3782 16.1179 11.1652 15.7496L10.2996 16.2504ZM10.7324 15.5H7.26756V16.5H10.7324V15.5Z" fill="#0F3F62"/>
<circle cx="12" cy="3" r="3" fill="#FA5F1C"/>
</svg>
