<svg width="18" height="18" viewBox="0 0 18 18" fill="none" xmlns="http://www.w3.org/2000/svg">
<path d="M3.27309 17H14.7269C15.3298 17 15.9079 16.7652 16.3342 16.3472C16.7605 15.9292 17 15.3622 17 14.7711V7.90687C17 7.65356 16.9437 7.40328 16.835 7.17348C16.7263 6.94368 16.5678 6.73989 16.3705 6.5763L10.1485 1.41253C9.82745 1.14616 9.42053 1 9 1C8.57947 1 8.17255 1.14616 7.85153 1.41253L1.62945 6.5763C1.4322 6.73989 1.2737 6.94368 1.16499 7.17348C1.05628 7.40328 0.999977 7.65356 1 7.90687V14.7711C1 15.0638 1.0588 15.3536 1.17303 15.6241C1.28726 15.8945 1.4547 16.1402 1.66577 16.3472C1.87685 16.5541 2.12743 16.7183 2.40322 16.8303C2.679 16.9423 2.97459 17 3.27309 17V17Z" stroke="#676E89" stroke-linecap="round" stroke-linejoin="round"/>
<path d="M7 17V11.7115C7 11.5228 7.06973 11.3418 7.19386 11.2084C7.31799 11.075 7.48635 11 7.6619 11H10.3381C10.5136 11 10.682 11.075 10.8061 11.2084C10.9303 11.3418 11 11.5228 11 11.7115V17" stroke="#676E89" stroke-linecap="round" stroke-linejoin="round"/>
</svg>
