<svg width="19" height="19" viewBox="0 0 19 19" fill="none" xmlns="http://www.w3.org/2000/svg">
<path d="M7.13998 11.8184L10.1533 17.2743C10.2689 17.5051 10.4501 17.6968 10.6741 17.8254C10.8982 17.954 11.1552 18.0138 11.4131 17.9973C11.671 17.9808 11.9182 17.8887 12.124 17.7326C12.3298 17.5765 12.485 17.3632 12.5701 17.1195L17.9306 2.47779C18.0042 2.28113 18.0197 2.06745 17.9751 1.86226C17.9305 1.65707 17.8278 1.46902 17.6791 1.32055C17.5305 1.17208 17.3423 1.06945 17.1369 1.02491C16.9315 0.980367 16.7176 0.995792 16.5208 1.06934L1.86474 6.42455C1.62765 6.51081 1.42042 6.66341 1.26779 6.86414C1.11516 7.06486 1.02358 7.30523 1.00397 7.55654C0.984372 7.80786 1.03758 8.0595 1.15725 8.28142C1.27691 8.50334 1.45798 8.68617 1.67883 8.80808L7.13998 11.8184ZM7.13998 11.8184L10.5019 8.45975" stroke="#0F3F62" stroke-width="1.625" stroke-linecap="round" stroke-linejoin="round"/>
</svg>
