<svg width="18" height="19" viewBox="0 0 18 19" fill="none" xmlns="http://www.w3.org/2000/svg">
<path d="M9 9C11.2091 9 13 7.20914 13 5C13 2.79086 11.2091 1 9 1C6.79086 1 5 2.79086 5 5C5 7.20914 6.79086 9 9 9Z" stroke="#676E89" stroke-linecap="round" stroke-linejoin="round"/>
<path d="M15.569 18C16.566 18 17.2703 17.0306 16.8998 16.1408C16.2696 14.6236 15.1799 13.3227 13.7717 12.4063C12.3634 11.4899 10.7013 11 9.00002 11C7.29877 11 5.63662 11.4899 4.22836 12.4063C2.82011 13.3227 1.73047 14.6236 1.10027 16.1408C0.729784 17.0306 1.43349 18 2.43106 18H15.569Z" stroke="#676E89" stroke-linecap="round" stroke-linejoin="round"/>
</svg>
