<svg width="0" height="0" class="hidden">
  <symbol fill="none" xmlns="http://www.w3.org/2000/svg" viewBox="0 0 20 20" id="gear">
    <path d="M17.713 6.36a.655.655 0 00.056-.073v0a.57.57 0 00.032-.58 8.338 8.338 0 00-1.494-2.042.654.654 0 00-.76-.109v0c-1.57.959-3.559 0-3.873-1.917v0a.682.682 0 00-.535-.511A6.645 6.645 0 009.895 1c-.47 0-.823.06-1.19.134a.475.475 0 00-.38.466v0a.445.445 0 01-.006.077c-.334 1.892-2.306 2.831-3.866 1.88v0a.646.646 0 00-.757.11c-.592.608-1.071 1.32-1.485 2.044a.553.553 0 00.02.577v0a.632.632 0 00.054.07c1.218 1.388.69 3.594-.971 4.228v0a.415.415 0 00-.282.436c.101.944.277 1.875.582 2.681a.458.458 0 00.433.291v0c1.772-.106 3.232 1.585 2.726 3.387a.238.238 0 01-.015.04v0a.245.245 0 00.084.314c.86.562 1.804 1.027 2.833 1.24a.24.24 0 00.218-.067v0a.26.26 0 00.026-.031 2.617 2.617 0 014.268.001c.007.01.015.02.024.029v0a.22.22 0 00.217.057c1.06-.303 2.028-.706 2.818-1.376a.113.113 0 00.007-.165v0a.112.112 0 01-.028-.049c-.502-1.8.854-3.486 2.728-3.38v0c.19 0 .36-.116.427-.293.323-.867.565-1.74.612-2.677a.443.443 0 00-.306-.438v0c-1.66-.74-2.189-2.84-.973-4.226z" stroke="#676E89" stroke-miterlimit="10" stroke-linecap="round" stroke-linejoin="round"></path>
    <path d="M10.477 13.768c1.652-.119 2.884-1.778 2.75-3.707-.134-1.928-1.582-3.395-3.235-3.276-1.652.119-2.884 1.778-2.75 3.707.134 1.928 1.582 3.395 3.235 3.276z" stroke="#676E89" stroke-miterlimit="10" stroke-linecap="round" stroke-linejoin="round"></path>
  </symbol>
  <symbol fill="none" xmlns="http://www.w3.org/2000/svg" viewBox="0 0 20 20" id="home">
    <path d="M6.772 9H2.228C1.491 9 1 8.439 1 7.596V2.404C1 1.56 1.491 1 2.228 1h4.544C7.509 1 8 1.561 8 2.404v5.192C8 8.44 7.509 9 6.772 9zm8.725-1C13.499 8 12 6.375 12 4.5c0-2 1.623-3.5 3.497-3.5 1.998 0 3.496 1.625 3.496 3.5.125 1.875-1.498 3.5-3.496 3.5zM6.772 19H2.228C1.491 19 1 18.5 1 17.75v-4.5C1 12.5 1.491 12 2.228 12h4.544C7.509 12 8 12.5 8 13.25v4.625C8 18.5 7.509 19 6.772 19zm10 0h-4.544C11.491 19 11 18.5 11 17.75v-4.5c0-.75.491-1.25 1.228-1.25h4.544c.737 0 1.228.5 1.228 1.25v4.625C18 18.5 17.386 19 16.772 19z" stroke="#676E89" stroke-miterlimit="10" stroke-linecap="round" stroke-linejoin="round"></path>
  </symbol>
  <symbol fill="none" xmlns="http://www.w3.org/2000/svg" viewBox="0 0 50 50" id="logo">
    <circle cx="25" cy="25" r="25" transform="rotate(-90 25 25)" fill="#54C1FB"></circle>
    <path d="M24 20.056C24 17.916 22.197 16 19.944 16 17.69 16 16 17.916 16 20.056 16 22.197 17.803 24 19.944 24 22.197 24 24 22.197 24 20.056zm9 1.833v-3.667c0-1.11-.8-2.222-1.8-2.222h-3.3c-1.1 0-1.9 1-1.9 2.222v3.667C26 23 26.8 24 27.9 24h3.3c.9 0 1.8-1 1.8-2.111zm1 9.971v-3.72c0-1.126-.862-2.14-2.048-2.14H18.048C16.97 26 16 26.901 16 28.14v3.72c0 1.126.862 2.14 2.048 2.14h13.904C33.03 34 34 32.986 34 31.86z" fill="#fff"></path>
  </symbol>
  <symbol fill="none" xmlns="http://www.w3.org/2000/svg" viewBox="0 0 21 21" id="notes">
    <path d="M11.665 13.27l-3.321.706a1.113 1.113 0 01-1.32-1.32l.705-3.322c.09-.421.3-.807.603-1.112l6.365-6.363a2.927 2.927 0 014.142 0l.302.302a2.928 2.928 0 010 4.143l-6.361 6.364a2.231 2.231 0 01-1.115.603v0z" stroke="#676E89" stroke-linecap="round" stroke-linejoin="round"></path>
    <path d="M18 7.584v9.443A2.972 2.972 0 0115.028 20H3.972A2.971 2.971 0 011 17.027V5.973A2.973 2.973 0 013.972 3h9.399" stroke="#676E89" stroke-linecap="round" stroke-linejoin="round"></path>
  </symbol>
  <symbol fill="none" xmlns="http://www.w3.org/2000/svg" viewBox="0 0 17 20" id="notification">
    <path d="M1 16h15M2 9.5A6.5 6.5 0 018.5 3v0A6.5 6.5 0 0115 9.5V16H2V9.5z" stroke="#0F3F62" stroke-linecap="round" stroke-linejoin="round"></path>
    <path d="M7.268 16v-.5a.5.5 0 00-.433.25l.433.25zm3.464 0l.433-.25a.5.5 0 00-.433-.25v.5zM7.5 17c0-.274.073-.53.2-.75l-.865-.5A2.491 2.491 0 006.5 17h1zM9 18.5A1.5 1.5 0 017.5 17h-1A2.5 2.5 0 009 19.5v-1zm1.5-1.5A1.5 1.5 0 019 18.5v1a2.5 2.5 0 002.5-2.5h-1zm-.2-.75c.127.22.2.476.2.75h1a2.49 2.49 0 00-.335-1.25l-.865.5zm.432-.75H7.268v1h3.464v-1z" fill="#0F3F62"></path>
    <circle cx="12" cy="3" r="3" fill="#FA5F1C"></circle>
  </symbol>
  <symbol fill="none" xmlns="http://www.w3.org/2000/svg" viewBox="0 0 24 24" id="out">
    <path d="M4 7.16V5.5A1.5 1.5 0 015.5 4h13A1.5 1.5 0 0120 5.5v13a1.5 1.5 0 01-1.5 1.5h-13A1.5 1.5 0 014 18.5v-1.66M4 12h8.36" stroke="#79798B" stroke-width="1.5" stroke-linecap="round"></path>
    <path d="M15.761 11.78a.3.3 0 010 .44L12.754 15a.3.3 0 01-.504-.22V9.22a.3.3 0 01.504-.22l3.007 2.779z" fill="#79798B"></path>
  </symbol>
  <symbol fill="none" xmlns="http://www.w3.org/2000/svg" viewBox="0 0 18 18" id="place">
    <path d="M3.273 17h11.454c.603 0 1.18-.235 1.607-.653.427-.418.666-.985.666-1.576V7.907c0-.253-.056-.504-.165-.734a1.746 1.746 0 00-.465-.597l-6.222-5.163A1.8 1.8 0 009 1a1.8 1.8 0 00-1.148.413L1.629 6.576a1.747 1.747 0 00-.464.597c-.109.23-.165.48-.165.734v6.864a2.192 2.192 0 00.666 1.576c.21.207.461.371.737.483.276.112.572.17.87.17v0z" stroke="#676E89" stroke-linecap="round" stroke-linejoin="round"></path>
    <path d="M7 17v-5.289c0-.188.07-.37.194-.503A.64.64 0 017.662 11h2.676a.64.64 0 01.468.208.74.74 0 01.194.503V17" stroke="#676E89" stroke-linecap="round" stroke-linejoin="round"></path>
  </symbol>
  <symbol fill="none" xmlns="http://www.w3.org/2000/svg" viewBox="0 0 19 19" id="plane">
    <path d="M7.14 11.818l3.013 5.456a1.314 1.314 0 002.417-.155l5.36-14.641a1.093 1.093 0 00-1.41-1.409L1.866 6.425a1.314 1.314 0 00-.186 2.383l5.461 3.01zm0 0l3.362-3.358" stroke="#0F3F62" stroke-width="1.625" stroke-linecap="round" stroke-linejoin="round"></path>
  </symbol>
  <symbol fill="none" xmlns="http://www.w3.org/2000/svg" viewBox="0 0 18 19" id="profile">
    <path d="M9 9a4 4 0 100-8 4 4 0 000 8zm6.569 9c.997 0 1.701-.97 1.33-1.86a8.238 8.238 0 00-3.127-3.734A8.756 8.756 0 009 11c-1.701 0-3.363.49-4.772 1.406A8.237 8.237 0 001.1 16.141C.73 17.03 1.433 18 2.431 18H15.57z" stroke="#676E89" stroke-linecap="round" stroke-linejoin="round"></path>
  </symbol>
  <symbol fill="none" xmlns="http://www.w3.org/2000/svg" viewBox="0 0 24 24" id="statistic">
    <path d="M4 14.47h2.126a.5.5 0 00.433-.25l1.787-3.097a.5.5 0 01.897.062l2.192 5.418a.5.5 0 00.947-.061l2.433-9.292a.5.5 0 01.926-.105l2.402 4.587a.5.5 0 00.443.268H20" stroke="#79798B" stroke-width="1.5" stroke-linecap="round"></path>
  </symbol>
</svg>